<svg width="180" height="180" viewBox="0 0 180 180" fill="none" xmlns="http://www.w3.org/2000/svg">
<rect width="180" height="180" rx="7" fill="white"/>
<path d="M67.4861 53.84C71.6461 53.84 75.3261 54.448 78.5261 55.664C81.7901 56.88 84.8621 58.704 87.7421 61.136L80.2541 70.064C78.2701 68.528 76.3181 67.376 74.3981 66.608C72.4781 65.84 70.4301 65.456 68.2541 65.456C63.7741 65.456 60.2221 67.344 57.5981 71.12C55.0381 74.896 53.7581 80.72 53.7581 88.592C53.7581 96.336 55.0381 102.096 57.5981 105.872C60.2221 109.584 63.8381 111.44 68.4461 111.44C70.8781 111.44 73.0861 110.992 75.0701 110.096C77.0541 109.136 79.1981 107.792 81.5021 106.064L88.5101 115.088C86.0141 117.584 82.9741 119.632 79.3901 121.232C75.8701 122.832 71.9661 123.632 67.6781 123.632C61.5341 123.632 56.1901 122.288 51.6461 119.6C47.1021 116.912 43.5501 112.944 40.9901 107.696C38.4941 102.384 37.2461 96.016 37.2461 88.592C37.2461 81.36 38.5261 75.12 41.0861 69.872C43.7101 64.624 47.2941 60.656 51.8381 57.968C56.4461 55.216 61.6621 53.84 67.4861 53.84Z" fill="black"/>
<path d="M130.577 122L127.121 107.696H107.729L104.369 122H88.0489L108.113 55.472H127.217L147.281 122H130.577ZM110.417 96.272H124.433L117.425 66.896L110.417 96.272Z" fill="#743FEA"/>
</svg>
